<?xml version="1.0" encoding="iso-8859-1"?>
<!-- Generator: Adobe Illustrator 19.0.0, SVG Export Plug-In . SVG Version: 6.00 Build 0)  -->
<svg version="1.1" id="Layer_1" xmlns="http://www.w3.org/2000/svg" xmlns:xlink="http://www.w3.org/1999/xlink" x="0px" y="0px"
	 viewBox="0 0 503.607 503.607" style="enable-background:new 0 0 503.607 503.607;" xml:space="preserve">
<g>
	<g>
		<path d="M428.066,360.752h75.541v-25.18c0-4.642-3.752-8.393-8.393-8.393h-9.904l17.148-29.335
			c1.519-2.602,1.536-5.817,0.034-8.419c-1.494-2.61-4.272-4.214-7.277-4.214h-8.822c-4.214-71.974-61.893-129.654-133.867-133.867
			v-8.822h16.787c4.642,0,8.393-3.752,8.393-8.393c0-4.642-3.752-8.393-8.393-8.393h-50.361c-4.642,0-8.393,3.752-8.393,8.393
			c0,4.642,3.752,8.393,8.393,8.393h16.787v8.822c-71.974,4.214-129.653,61.893-133.867,133.867h-8.821
			c-3.005,0-5.783,1.603-7.277,4.214c-1.502,2.602-1.486,5.817,0.034,8.419l17.148,29.335h-19.683
			c-2.451-8.477-8.007-18.197-15.402-22.679v-37.51c9.77-3.466,16.787-12.8,16.787-23.745c0-10.76-6.79-19.976-16.308-23.569
			c0.697-5.271,2.056-10.702,3.466-16.367c2.182-8.746,4.448-17.786,4.448-27.211c0-4.642-3.752-8.393-8.393-8.393v-67.148
			c0-4.642-3.752-8.393-8.393-8.393h-8.393v-9.787c7.202-2.207,13.329-7.134,17.148-14.311c5.07-9.552,5.145-20.841,0.143-30.284
			L150.058,4.207c-2.938-5.389-11.801-5.389-14.739,0l-18.348,33.658c-4.961,9.359-4.893,20.639,0.176,30.191
			c3.819,7.185,9.946,12.12,17.148,14.319v9.787h-8.393c-4.642,0-8.393,3.752-8.393,8.393v67.148c-4.642,0-8.393,3.752-8.393,8.393
			c0,9.426,2.266,18.466,4.449,27.211c1.41,5.666,2.77,11.096,3.466,16.367c-9.518,3.592-16.308,12.808-16.308,23.569
			c0,10.945,7.017,20.279,16.787,23.745v37.51c-7.395,4.482-12.951,14.202-15.402,22.679H82.549
			c-2.451-8.477-8.007-18.197-15.402-22.679v-37.51c9.77-3.466,16.787-12.8,16.787-23.745c0-10.76-6.79-19.976-16.308-23.569
			c0.697-5.271,2.056-10.702,3.466-16.367c2.182-8.746,4.449-17.786,4.449-27.211c0-4.642-3.752-8.393-8.393-8.393v-67.148
			c0-4.642-3.752-8.393-8.393-8.393h-8.393v-9.787c7.202-2.207,13.329-7.134,17.148-14.311c5.07-9.552,5.145-20.841,0.143-30.284
			L49.337,4.207c-2.938-5.389-11.801-5.389-14.739,0L16.25,37.865c-4.961,9.359-4.893,20.639,0.176,30.191
			c3.819,7.185,9.946,12.12,17.148,14.319v9.787H25.18c-4.642,0-8.393,3.752-8.393,8.393v67.148c-4.642,0-8.393,3.752-8.393,8.393
			c0,9.426,2.266,18.466,4.449,27.211c1.41,5.666,2.77,11.096,3.466,16.367C6.79,223.268,0,232.484,0,243.244
			c0,10.945,7.017,20.279,16.787,23.745v37.51C6.723,310.601,0,326.431,0,335.572v75.541h50.361c4.642,0,8.393,3.752,8.393,8.393
			s-3.752,8.393-8.393,8.393H0v16.787h75.541c4.642,0,8.393,3.752,8.393,8.393c0,4.642-3.752,8.393-8.393,8.393H0v0.898
			c0,22.654,18.415,41.069,41.069,41.069h421.468c22.654,0,41.069-18.415,41.069-41.069v-51.259h-50.361
			c-4.642,0-8.393-3.752-8.393-8.393c0-4.642,3.752-8.393,8.393-8.393h50.361v-16.787h-75.541c-4.642,0-8.393-3.752-8.393-8.393
			S423.424,360.752,428.066,360.752z M58.318,318.726c1.721,0.604,4.415,4.356,6.371,8.452H19.213
			c1.922-4.088,4.499-7.831,5.968-8.393c4.642,0,8.393-3.752,8.393-8.393v-50.361c0-4.642-3.752-8.393-8.393-8.393
			c-4.633,0-8.393-3.76-8.393-8.393s3.76-8.393,8.393-8.393c4.642,0,8.393-3.752,8.393-8.393c0-9.426-2.266-18.466-4.449-27.211
			c-1.276-5.086-2.493-9.997-3.231-14.756h32.147c-0.739,4.759-1.956,9.669-3.231,14.756c-2.182,8.746-4.449,17.786-4.449,27.211
			c0,4.642,3.752,8.393,8.393,8.393c4.633,0,8.393,3.76,8.393,8.393s-3.76,8.393-8.393,8.393c-4.642,0-8.393,3.752-8.393,8.393
			v50.361C50.361,315.033,53.684,318.726,58.318,318.726z M119.934,327.178c1.922-4.088,4.499-7.831,5.968-8.393
			c4.642,0,8.393-3.752,8.393-8.393v-50.361c0-4.642-3.752-8.393-8.393-8.393c-4.633,0-8.393-3.76-8.393-8.393
			s3.76-8.393,8.393-8.393c4.642,0,8.393-3.752,8.393-8.393c0-9.426-2.266-18.466-4.449-27.211
			c-1.276-5.086-2.493-9.997-3.231-14.756h32.147c-0.739,4.759-1.956,9.669-3.231,14.756c-2.182,8.746-4.449,17.786-4.449,27.211
			c0,4.642,3.752,8.393,8.393,8.393c4.633,0,8.393,3.76,8.393,8.393s-3.76,8.393-8.393,8.393c-4.642,0-8.393,3.752-8.393,8.393
			v50.361c0,4.642,3.324,8.335,7.957,8.335c1.721,0.604,4.415,4.356,6.371,8.452H119.934z M272.031,211.769
			c19.934-17.593,45.543-27.279,72.1-27.279c4.642,0,8.393,3.752,8.393,8.393c0,4.642-3.752,8.393-8.393,8.393
			c-22.469,0-44.124,8.2-61.004,23.082c-1.586,1.41-3.567,2.098-5.548,2.098c-2.317,0-4.625-0.957-6.295-2.845
			C268.221,220.137,268.548,214.832,272.031,211.769z M222.393,327.178l-14.722-25.18h2.166h268.59h2.166l-14.722,25.18H222.393z"/>
	</g>
</g>
<g>
</g>
<g>
</g>
<g>
</g>
<g>
</g>
<g>
</g>
<g>
</g>
<g>
</g>
<g>
</g>
<g>
</g>
<g>
</g>
<g>
</g>
<g>
</g>
<g>
</g>
<g>
</g>
<g>
</g>
</svg>
